<svg id="Calque_1" data-name="Calque 1" xmlns="http://www.w3.org/2000/svg" viewBox="0 0 414.9 99.54"><defs><style>.cls-1{fill:#fff;}.cls-1,.cls-10,.cls-11,.cls-12,.cls-13,.cls-14,.cls-15,.cls-16,.cls-17,.cls-18,.cls-19,.cls-2,.cls-20,.cls-21,.cls-22,.cls-23,.cls-24,.cls-25,.cls-26,.cls-27,.cls-28,.cls-29,.cls-3,.cls-30,.cls-31,.cls-32,.cls-33,.cls-34,.cls-35,.cls-36,.cls-4,.cls-5,.cls-6,.cls-7,.cls-8,.cls-9{fill-rule:evenodd;}.cls-2{fill:#f18e5b;}.cls-3{fill:#e95f18;}.cls-4{fill:#ea5b12;}.cls-5{fill:#ea590c;}.cls-6{fill:#ea5d13;}.cls-7{fill:#e95f17;}.cls-8{fill:#ea5c10;}.cls-9{fill:#d6713f;}.cls-10{fill:#f9ba75;}.cls-11{fill:#f9ba78;}.cls-12{fill:#ea5a12;}.cls-13{fill:#ea611b;}.cls-14{fill:#e95c12;}.cls-15{fill:#fffefd;}.cls-16{fill:#ea5a11;}.cls-17{fill:#e95a11;}.cls-18{fill:#e95a10;}.cls-19{fill:#e85a0d;}.cls-20{fill:#ea5a0f;}.cls-21{fill:#f7b591;}.cls-22{fill:#f6bb9a;}.cls-23{fill:#f8b673;}.cls-24{fill:#f9b874;}.cls-25{fill:#e65b14;}.cls-26{fill:#e4590f;}.cls-27{fill:#fffdfd;}.cls-28{fill:#e85c13;}.cls-29{fill:#e75d15;}.cls-30{fill:#e95910;}.cls-31{fill:#e85d12;}.cls-32{fill:#e95e15;}.cls-33{fill:#eb6119;}.cls-34{fill:#ea5d14;}.cls-35{fill:#e95e18;}.cls-36{fill:#eb631f;}</style></defs><path class="cls-1" d="M2.19,0H111.73V99.51H2.19Z" transform="translate(-2.19 0.02)"/><path class="cls-2" d="M59.92,2.37a12.5,12.5,0,0,1,3.24-.07q-.72.08-1.41.21A5.82,5.82,0,0,0,59.92,2.37Z" transform="translate(-2.19 0.02)"/><path class="cls-3" d="M59.92,2.37a5.82,5.82,0,0,1,1.83.14,36.25,36.25,0,0,0-11.12,3.1,1.72,1.72,0,0,1-1-1A32.66,32.66,0,0,1,59.92,2.37Z" transform="translate(-2.19 0.02)"/><path class="cls-4" d="M49.22,4.9l.84,1a42.59,42.59,0,0,0-11.82,9,10.81,10.81,0,0,1-1.69-1.41A36,36,0,0,1,49.22,4.9Z" transform="translate(-2.19 0.02)"/><path class="cls-5" d="M49.64,4.62a1.72,1.72,0,0,0,1,1,2.16,2.16,0,0,1-.57.28l-.84-1A1,1,0,0,1,49.64,4.62Z" transform="translate(-2.19 0.02)"/><path class="cls-6" d="M64,6,62.87,7.3a30.64,30.64,0,0,0-8.58,2.11L52.88,8.14A25.47,25.47,0,0,1,64,6Z" transform="translate(-2.19 0.02)"/><path class="cls-7" d="M64.42,6.17a24.11,24.11,0,0,1,11,3.1l.43.56A29.63,29.63,0,0,0,63.44,7.3,7.5,7.5,0,0,1,64.42,6.17Z" transform="translate(-2.19 0.02)"/><path class="cls-5" d="M64,6a.4.4,0,0,1,.42.14,7.5,7.5,0,0,0-1,1.13h-.57Z" transform="translate(-2.19 0.02)"/><path class="cls-8" d="M52.6,8.28l1.26,1.41A31.3,31.3,0,0,0,42.18,19a13.49,13.49,0,0,1-1.69-1.69A30.38,30.38,0,0,1,52.6,8.28Z" transform="translate(-2.19 0.02)"/><path class="cls-5" d="M52.88,8.14l1.41,1.27a1,1,0,0,1-.43.28L52.6,8.28C52.64,8.16,52.74,8.12,52.88,8.14Z" transform="translate(-2.19 0.02)"/><path class="cls-9" d="M75.4,9.27c1,.59,2.08,1.23,3.1,1.9a17.54,17.54,0,0,1-2.67-1.34Z" transform="translate(-2.19 0.02)"/><path class="cls-10" d="M58.65,13.91l-.84-1a3,3,0,0,1,.7-.85,24,24,0,0,1,22.24,5.85c.92.89,1.81,1.81,2.68,2.74l-.07.14Q73,10.37,58.65,13.91Z" transform="translate(-2.19 0.02)"/><path class="cls-10" d="M58.51,12.08a3,3,0,0,0-.7.85l.84,1a.84.84,0,0,0-.42.14,6.17,6.17,0,0,0-.78-.84c-.66.64-1.3,1.3-1.9,2l-1.12.56c.84-.91,1.7-1.8,2.6-2.67a1.09,1.09,0,0,0-.07-.56C57.49,12.38,58,12.24,58.51,12.08Z" transform="translate(-2.19 0.02)"/><path class="cls-10" d="M57,12.51a1.09,1.09,0,0,1,.07.56c-.9.87-1.76,1.76-2.6,2.67A31.14,31.14,0,0,0,46,22.92a15,15,0,0,0-1.69-1.69A28.37,28.37,0,0,1,57,12.51Z" transform="translate(-2.19 0.02)"/><path class="cls-11" d="M58.23,14.05a25,25,0,0,0-2.68,1.13c.6-.67,1.24-1.33,1.9-2A6.17,6.17,0,0,1,58.23,14.05Z" transform="translate(-2.19 0.02)"/><path class="cls-12" d="M36.26,13.77a12,12,0,0,1,1.55,1.55,58.88,58.88,0,0,0-8.3,13q-1.7-1.75-3.38-3.52l2.53-1A48.1,48.1,0,0,1,36.26,13.77Z" transform="translate(-2.19 0.02)"/><path class="cls-5" d="M36.55,13.49a10.81,10.81,0,0,0,1.69,1.41.92.92,0,0,1-.43.42,12,12,0,0,0-1.55-1.55A.45.45,0,0,1,36.55,13.49Z" transform="translate(-2.19 0.02)"/><path class="cls-13" d="M22.89,21.52a3.57,3.57,0,0,1-.84-.85,32.16,32.16,0,0,1,5.84-6.05.18.18,0,0,1,0,.28A45.08,45.08,0,0,0,22.89,21.52Z" transform="translate(-2.19 0.02)"/><path class="cls-14" d="M21.76,21a6.17,6.17,0,0,1,.85,1c-.82,1.51-1.62,3-2.4,4.57a8.69,8.69,0,0,0,2-.49Q18.8,29.76,15,33.34a24.11,24.11,0,0,1,1.47-3.66.56.56,0,0,0,0-.56q-1.89-2.36-3.87-4.65a52.06,52.06,0,0,0-2.67,5.78L8.25,28.7a42.5,42.5,0,0,1,10.84-14,.17.17,0,0,1,.28,0A37.2,37.2,0,0,0,14,21.94c1.2,1.65,2.47,3.24,3.8,4.79l2.61-4.09A17.06,17.06,0,0,1,21.76,21Z" transform="translate(-2.19 0.02)"/><path class="cls-5" d="M40.49,17.29A13.49,13.49,0,0,0,42.18,19a.41.41,0,0,1-.28.28,13.49,13.49,0,0,1-1.69-1.69A.41.41,0,0,1,40.49,17.29Z" transform="translate(-2.19 0.02)"/><path class="cls-12" d="M40.21,17.57a13.49,13.49,0,0,0,1.69,1.69,50.14,50.14,0,0,0-7.47,13.8,11.84,11.84,0,0,1-2.11-2.25A43,43,0,0,1,40.21,17.57Z" transform="translate(-2.19 0.02)"/><path class="cls-5" d="M22.05,20.67a3.57,3.57,0,0,0,.84.85.94.94,0,0,1-.28.42,6.17,6.17,0,0,0-.85-1A.43.43,0,0,1,22.05,20.67Z" transform="translate(-2.19 0.02)"/><path class="cls-10" d="M44,21.52a14.2,14.2,0,0,1,1.69,1.69c-1,1.33-1.91,2.69-2.82,4.08l-5.77,5.63A40.4,40.4,0,0,1,44,21.52Z" transform="translate(-2.19 0.02)"/><path class="cls-10" d="M44.29,21.23A15,15,0,0,1,46,22.92a.43.43,0,0,1-.28.29A14.2,14.2,0,0,0,44,21.52.43.43,0,0,1,44.29,21.23Z" transform="translate(-2.19 0.02)"/><path class="cls-15" d="M15,33.34a2.31,2.31,0,0,0-.29.71,1.28,1.28,0,0,0-.14.7.82.82,0,0,0-.28.56q-.46,1.86-1.05,3.66c-.48-.68-1-1.34-1.48-2a.24.24,0,0,0-.14-.28c-.83-1.3-1.67-2.59-2.54-3.87.21-.74.44-1.47.71-2.18a.42.42,0,0,0,.14-.42,52.06,52.06,0,0,1,2.67-5.78q2,2.3,3.87,4.65a.56.56,0,0,1,0,.56A24.11,24.11,0,0,0,15,33.34Z" transform="translate(-2.19 0.02)"/><path class="cls-16" d="M25.71,24.9c1.16,1.26,2.39,2.48,3.66,3.66A60.1,60.1,0,0,0,25,45.17a20.86,20.86,0,0,1-2.6-2.39,1.11,1.11,0,0,1-.07-.57,13.5,13.5,0,0,1,.42-2.53l-2.54,1-1.68-1.83c1.63-.85,3.3-1.65,5-2.39a47,47,0,0,1,3.31-9.15l-.21-.14q-3.6,1.28-7.25,2.39L23,25.74C23.91,25.42,24.8,25.14,25.71,24.9Z" transform="translate(-2.19 0.02)"/><path class="cls-5" d="M25.71,24.9a.41.41,0,0,1,.42-.15q1.68,1.77,3.38,3.52a.25.25,0,0,1-.14.29C28.1,27.38,26.87,26.16,25.71,24.9Z" transform="translate(-2.19 0.02)"/><path class="cls-15" d="M18.53,38.83a.91.91,0,0,0-.43.14,14.78,14.78,0,0,0-2,1,10.4,10.4,0,0,1,.49-2.53v-.57q.89-3.18,2-6.33a7.83,7.83,0,0,0,.35-.71,2.6,2.6,0,0,0,.49-.28q3.64-1.11,7.25-2.39l.21.14a47,47,0,0,0-3.31,9.15C21.83,37.18,20.16,38,18.53,38.83Z" transform="translate(-2.19 0.02)"/><path class="cls-10" d="M42.88,27.29a9.26,9.26,0,0,1-.7,1.27q-2.68,2.6-5.35,5.21a1.57,1.57,0,0,1,.28-.85Z" transform="translate(-2.19 0.02)"/><path class="cls-10" d="M42.18,28.56a49.53,49.53,0,0,0-3.66,8.58,11.53,11.53,0,0,1-2.11-2.25,3.51,3.51,0,0,1,.42-1.12Q39.5,31.16,42.18,28.56Z" transform="translate(-2.19 0.02)"/><path class="cls-17" d="M8.11,29.12,9.8,30.67c-.27.71-.5,1.44-.71,2.18.87,1.28,1.71,2.57,2.54,3.87A7.92,7.92,0,0,1,9.8,38.41Q9,37.26,8.18,36.16,7.45,38.82,7,41.51L3.6,44.75A49.81,49.81,0,0,1,8.11,29.12Z" transform="translate(-2.19 0.02)"/><path class="cls-5" d="M8.25,28.7l1.69,1.55a.42.42,0,0,1-.14.42L8.11,29.12A.75.75,0,0,1,8.25,28.7Z" transform="translate(-2.19 0.02)"/><path class="cls-18" d="M18.53,30.53q-1.09,3.15-2,6.33a10.64,10.64,0,0,1-2-2.11,1.28,1.28,0,0,1,.14-.7c1.27-1.19,2.51-2.42,3.73-3.66A.14.14,0,0,1,18.53,30.53Z" transform="translate(-2.19 0.02)"/><path class="cls-5" d="M32.32,30.81a11.84,11.84,0,0,0,2.11,2.25.38.38,0,0,1-.14.42L32,31.37A2,2,0,0,1,32.32,30.81Z" transform="translate(-2.19 0.02)"/><path class="cls-8" d="M32,31.37l2.25,2.11q-.48,1.6-.84,3.24l-3.94,3.8A50.85,50.85,0,0,1,32,31.37Z" transform="translate(-2.19 0.02)"/><path class="cls-5" d="M23,25.74l-3.66,3.8a2.6,2.6,0,0,1-.49.28,7.83,7.83,0,0,1-.35.71.14.14,0,0,0-.08-.14c-1.22,1.24-2.46,2.47-3.73,3.66a2.31,2.31,0,0,1,.29-.71q3.8-3.59,7.18-7.32A2.77,2.77,0,0,1,23,25.74Z" transform="translate(-2.19 0.02)"/><path class="cls-10" d="M36.41,34.89a11.53,11.53,0,0,0,2.11,2.25.43.43,0,0,1-.14.43,12.26,12.26,0,0,1-2.12-2.26A.41.41,0,0,1,36.41,34.89Z" transform="translate(-2.19 0.02)"/><path class="cls-10" d="M36.26,35.31a12.26,12.26,0,0,0,2.12,2.26,58.53,58.53,0,0,0-1.83,17.88,2.64,2.64,0,0,0-.57.49.36.36,0,0,1-.42,0A13.48,13.48,0,0,0,33.45,54,49.38,49.38,0,0,1,36.26,35.31Z" transform="translate(-2.19 0.02)"/><path class="cls-18" d="M14.3,35.31l2.25,2.12A10.4,10.4,0,0,0,16.06,40a14.78,14.78,0,0,1,2-1,17.56,17.56,0,0,0,1.83,1.83c-1.44.76-2.92,1.46-4.43,2.12A33.8,33.8,0,0,0,15,48.69a22.62,22.62,0,0,0,0,5.07.17.17,0,0,0,.14-.14c1.43-1.07,2.89-2.1,4.36-3.1-1.82,1.89-3.68,3.77-5.56,5.63a23.27,23.27,0,0,1-2.6-2.82,1.07,1.07,0,0,1,.35.29A83.91,83.91,0,0,1,12.47,43a2.07,2.07,0,0,0-.21-.92l-2.18-3.24L11.77,37c.51.63,1,1.29,1.48,2Q13.84,37.17,14.3,35.31Z" transform="translate(-2.19 0.02)"/><path class="cls-5" d="M14.58,34.75a10.64,10.64,0,0,0,2,2.11v.57L14.3,35.31A.82.82,0,0,1,14.58,34.75Z" transform="translate(-2.19 0.02)"/><path class="cls-15" d="M9.8,38.41a.94.94,0,0,0,.28.42l2.18,3.24a2.07,2.07,0,0,1,.21.92,83.91,83.91,0,0,0-.77,10.63,1.07,1.07,0,0,0-.35-.29q-1.77-1.62-3.67-3.09L6.28,49v-.56q.16-2.94.56-5.92a1.77,1.77,0,0,0,.14-1q.46-2.7,1.2-5.35Q9,37.26,9.8,38.41Z" transform="translate(-2.19 0.02)"/><path class="cls-5" d="M11.63,36.72a.24.24,0,0,1,.14.28l-1.69,1.83a.94.94,0,0,1-.28-.42A7.92,7.92,0,0,0,11.63,36.72Z" transform="translate(-2.19 0.02)"/><path class="cls-5" d="M33.45,36.72c-.09.28-.19.56-.28.85-1.23,1.22-2.5,2.4-3.8,3.52a.93.93,0,0,1,.14-.57Z" transform="translate(-2.19 0.02)"/><path class="cls-5" d="M18.53,38.83l1.68,1.83a.22.22,0,0,1-.28.14A17.56,17.56,0,0,1,18.1,39,.91.91,0,0,1,18.53,38.83Z" transform="translate(-2.19 0.02)"/><path class="cls-15" d="M22.33,42.21a1.73,1.73,0,0,0-.14,1,19.32,19.32,0,0,0-.43,4.22,7.71,7.71,0,0,0-.21,1.41c-.7.55-1.38,1.11-2,1.69-1.47,1-2.93,2-4.36,3.1A42.41,42.41,0,0,1,15,48.69a33.8,33.8,0,0,1,.49-5.77c1.51-.66,3-1.36,4.43-2.12a.22.22,0,0,0,.28-.14l2.54-1A13.5,13.5,0,0,0,22.33,42.21Z" transform="translate(-2.19 0.02)"/><path class="cls-17" d="M6.84,42.49q-.39,3-.56,5.92L3.46,45.73a1,1,0,0,1,.14-.56c1.08-1,2.13-2,3.17-3.1A.7.7,0,0,1,6.84,42.49Z" transform="translate(-2.19 0.02)"/><path class="cls-5" d="M7,41.51a1.77,1.77,0,0,1-.14,1,.7.7,0,0,0-.07-.42c-1,1.06-2.09,2.09-3.17,3.1v-.42Z" transform="translate(-2.19 0.02)"/><path class="cls-17" d="M22.19,43.2c.81.74,1.61,1.52,2.39,2.32l-2.75,2.75a2.7,2.7,0,0,1-.07-.85A19.32,19.32,0,0,1,22.19,43.2Z" transform="translate(-2.19 0.02)"/><path class="cls-19" d="M25,45.87a53.2,53.2,0,0,0,.07,13.52q.48,3.26,1.06,6.47L24.86,67l-1.55-1.41a16.59,16.59,0,0,1-1.69-2,12.49,12.49,0,0,0,1-1.19,69.22,69.22,0,0,1-1-9.09,2.84,2.84,0,0,0-.14-1.26.16.16,0,0,0-.14.14q-3,2.25-6.05,4.43a.9.9,0,0,0-.14.64,1.59,1.59,0,0,1-.78-1Q19.61,51,25,45.87Z" transform="translate(-2.19 0.02)"/><path class="cls-20" d="M3.46,46.15A37.51,37.51,0,0,0,6.28,49l1.4,1.27c1.87,2.07,3.81,4.09,5.85,6a.18.18,0,0,1,0,.28A17.76,17.76,0,0,0,12.19,58a3.56,3.56,0,0,0-.42-1.06L6.35,52.35a52.69,52.69,0,0,0,.91,10.56L4.73,65.3A55.84,55.84,0,0,1,3.46,46.15Z" transform="translate(-2.19 0.02)"/><path class="cls-5" d="M3.46,45.73l2.82,2.68V49a37.51,37.51,0,0,1-2.82-2.82Z" transform="translate(-2.19 0.02)"/><path class="cls-18" d="M33.17,37.57a57.16,57.16,0,0,0-1.69,14.22c-1-.91-1.94-1.85-2.89-2.82a.61.61,0,0,0,0,.56c.95,1,1.91,1.91,2.89,2.82q.16,3.81.56,7.6l-2.67,2.54a58.32,58.32,0,0,1,0-21.4C30.67,40,31.94,38.79,33.17,37.57Z" transform="translate(-2.19 0.02)"/><path class="cls-21" d="M15,48.69a42.41,42.41,0,0,0,.14,4.93.17.17,0,0,1-.14.14A22.62,22.62,0,0,1,15,48.69Z" transform="translate(-2.19 0.02)"/><path class="cls-5" d="M31.48,51.79v.56c-1-.91-1.94-1.85-2.89-2.82a.61.61,0,0,1,0-.56C29.54,49.94,30.5,50.88,31.48,51.79Z" transform="translate(-2.19 0.02)"/><path class="cls-15" d="M21.34,52.21c.1.37.19.75.28,1.12a69.22,69.22,0,0,0,1,9.09,12.49,12.49,0,0,1-1,1.19.38.38,0,0,0-.28.42c-1.4,1.43-2.79,2.89-4.15,4.37a91.89,91.89,0,0,1-2-10.56v-.56a.9.9,0,0,1,.14-.64Q18.35,54.47,21.34,52.21Z" transform="translate(-2.19 0.02)"/><path class="cls-15" d="M12.19,58v.42c.13,1,.25,2,.35,3Q13.27,64.68,14,68c-2.08-1.22-4.17-2.41-6.27-3.59a2.08,2.08,0,0,1-.28-1.06.68.68,0,0,0-.14-.42,52.69,52.69,0,0,1-.91-10.56l5.42,4.57A3.56,3.56,0,0,1,12.19,58Z" transform="translate(-2.19 0.02)"/><path class="cls-5" d="M22.33,42.21a1.11,1.11,0,0,0,.07.57A20.86,20.86,0,0,0,25,45.17v.7Q19.6,51,14.37,56.29a1.59,1.59,0,0,0,.78,1v.56A14.2,14.2,0,0,1,14,56.71c-.57.6-1.16,1.16-1.76,1.69V58a17.76,17.76,0,0,1,1.34-1.41.18.18,0,0,0,0-.28c-2-2-4-4-5.85-6q1.9,1.47,3.67,3.09A23.27,23.27,0,0,0,14,56.15c1.88-1.86,3.74-3.74,5.56-5.63.66-.58,1.34-1.14,2-1.69a7.71,7.71,0,0,1,.21-1.41,2.7,2.7,0,0,0,.07.85l2.75-2.75c-.78-.8-1.58-1.58-2.39-2.32A1.73,1.73,0,0,1,22.33,42.21Z" transform="translate(-2.19 0.02)"/><path class="cls-22" d="M21.34,52.21a.16.16,0,0,1,.14-.14,2.84,2.84,0,0,1,.14,1.26C21.53,53,21.44,52.58,21.34,52.21Z" transform="translate(-2.19 0.02)"/><path class="cls-23" d="M33.59,54.6a17.56,17.56,0,0,1,1.83,1.83,13.49,13.49,0,0,1-1.69,1.69C33.64,57,33.6,55.78,33.59,54.6Z" transform="translate(-2.19 0.02)"/><path class="cls-10" d="M33.45,54a13.48,13.48,0,0,1,2.11,1.9.36.36,0,0,0,.42,0,2.64,2.64,0,0,1,.57-.49v.42c-.57.42-.52.8.14,1.13a1.28,1.28,0,0,1,.14.7l-1.13-1L33.87,58.4l-.14-.28a13.49,13.49,0,0,0,1.69-1.69,17.56,17.56,0,0,0-1.83-1.83A1,1,0,0,1,33.45,54Z" transform="translate(-2.19 0.02)"/><path class="cls-24" d="M36.55,55.87A3.85,3.85,0,0,1,36.69,57C36,56.67,36,56.29,36.55,55.87Z" transform="translate(-2.19 0.02)"/><path class="cls-16" d="M15.15,57.84a91.89,91.89,0,0,0,2,10.56c1.36-1.48,2.75-2.94,4.15-4.37A14.2,14.2,0,0,0,23,65.72c-1.64,1.76-3.26,3.55-4.86,5.35a9.27,9.27,0,0,0,.5,2,6.85,6.85,0,0,1-2,2c-.48-1.19-1-2.36-1.55-3.52q-3.36-1.87-6.69-3.8a45.84,45.84,0,0,0,2,6.61c-1.38-1.31-2.74-2.64-4.08-4a.33.33,0,0,0-.28-.07,32.13,32.13,0,0,1-1.27-4.51L7.4,63.33a2.08,2.08,0,0,0,.28,1.06C9.78,65.57,11.87,66.76,14,68q-.67-3.3-1.41-6.62c-.1-1-.22-2-.35-3,.6-.53,1.19-1.09,1.76-1.69A14.2,14.2,0,0,0,15.15,57.84Z" transform="translate(-2.19 0.02)"/><path class="cls-10" d="M36.83,57.7a53.89,53.89,0,0,0,4.08,15.06l-2.25,2.12A46.19,46.19,0,0,1,33.87,58.4l1.83-1.69Z" transform="translate(-2.19 0.02)"/><path class="cls-16" d="M32,60.23a56.54,56.54,0,0,0,5.07,16.33L35.7,77.83l-2.39-2.25a52.11,52.11,0,0,1-3.8-12.39.67.67,0,0,1,.07-.42C30.43,61.94,31.25,61.1,32,60.23Z" transform="translate(-2.19 0.02)"/><path class="cls-5" d="M32,60v.28c-.79.87-1.61,1.71-2.46,2.54a.67.67,0,0,0-.07.42.93.93,0,0,1-.14-.7Z" transform="translate(-2.19 0.02)"/><path class="cls-5" d="M7.26,62.91a.68.68,0,0,1,.14.42L4.87,65.72a.38.38,0,0,1-.14-.42Z" transform="translate(-2.19 0.02)"/><path class="cls-5" d="M21.62,63.61a16.59,16.59,0,0,0,1.69,2l-.28.14A14.2,14.2,0,0,1,21.34,64,.38.38,0,0,1,21.62,63.61Z" transform="translate(-2.19 0.02)"/><path class="cls-15" d="M23.31,65.58a4.77,4.77,0,0,0,.28,1c.1.42.19.84.29,1.27a.84.84,0,0,1,.14.42A52.48,52.48,0,0,0,26.55,75q-1.86,3-3.66,6.12c-.09.19-.19.19-.28,0A54.82,54.82,0,0,1,19,73.61a2,2,0,0,0-.28-.56,9.27,9.27,0,0,1-.5-2c1.6-1.8,3.22-3.59,4.86-5.35Z" transform="translate(-2.19 0.02)"/><path class="cls-25" d="M26.27,66.15q.38,1.56.84,3.09a19.28,19.28,0,0,1-2-2A6.3,6.3,0,0,1,26.27,66.15Z" transform="translate(-2.19 0.02)"/><path class="cls-26" d="M23.88,67.84c-.1-.43-.19-.85-.29-1.27a.13.13,0,0,1,.07-.14,3.37,3.37,0,0,1,.78.91A.63.63,0,0,1,23.88,67.84Z" transform="translate(-2.19 0.02)"/><path class="cls-5" d="M23.31,65.58,24.86,67l1.27-1.13a.24.24,0,0,1,.14.29,6.3,6.3,0,0,0-1.13,1.12,19.28,19.28,0,0,0,2,2c.1.29.19.57.29.85-.89-.82-1.76-1.66-2.61-2.54a5.69,5.69,0,0,1-.77.71.84.84,0,0,0-.14-.42.63.63,0,0,0,.56-.5,3.37,3.37,0,0,0-.78-.91.13.13,0,0,0-.07.14A4.77,4.77,0,0,1,23.31,65.58Z" transform="translate(-2.19 0.02)"/><path class="cls-8" d="M27.4,70.09a59.59,59.59,0,0,0,4.92,11.26,10.44,10.44,0,0,0-1.41,1.41Q29.34,80.45,28,78c-.07-.14-.17-.16-.28-.07-1.11,1.91-2.24,3.82-3.38,5.7a36.56,36.56,0,0,0,2.39,3.24l-.84,1a33.06,33.06,0,0,1-3.24-3.45c-1.18-.39-2.35-.79-3.52-1.2q-1.68-2-3.52-3.8a40.51,40.51,0,0,0,4.36,1.34A32.51,32.51,0,0,1,17,75.44a9.24,9.24,0,0,1,2-1.83,54.82,54.82,0,0,0,3.66,7.46c.09.19.19.19.28,0Q24.69,78,26.55,75A52.48,52.48,0,0,1,24,68.26a5.69,5.69,0,0,0,.77-.71C25.64,68.43,26.51,69.27,27.4,70.09Z" transform="translate(-2.19 0.02)"/><path class="cls-27" d="M16.7,75a.94.94,0,0,0,.28.42,32.51,32.51,0,0,0,2.95,5.28,40.51,40.51,0,0,1-4.36-1.34,1.6,1.6,0,0,0-.85-.28l-1.12-.42h-.28a2.68,2.68,0,0,0-.92-.43l-1.48-3a2.1,2.1,0,0,0-.42-1,45.84,45.84,0,0,1-2-6.61q3.33,1.92,6.69,3.8C15.7,72.66,16.22,73.83,16.7,75Z" transform="translate(-2.19 0.02)"/><path class="cls-5" d="M6.14,70.23a.33.33,0,0,1,.28.07c1.34,1.37,2.7,2.7,4.08,4a2.1,2.1,0,0,1,.42,1l-4.5-4.37A2.23,2.23,0,0,1,6.14,70.23Z" transform="translate(-2.19 0.02)"/><path class="cls-17" d="M6.42,70.93l4.5,4.37,1.48,3a2.68,2.68,0,0,1,.92.43l-2.12,2A42.63,42.63,0,0,1,6.42,70.93Z" transform="translate(-2.19 0.02)"/><path class="cls-10" d="M41.05,72.9a37.08,37.08,0,0,0,9.29,12.25c-.7.66-1.4,1.32-2.11,2A36,36,0,0,1,38.8,75.3,13.46,13.46,0,0,0,41.05,72.9Z" transform="translate(-2.19 0.02)"/><path class="cls-10" d="M40.91,72.76a.13.13,0,0,1,.14.14,13.46,13.46,0,0,1-2.25,2.4.81.81,0,0,1-.14-.42Z" transform="translate(-2.19 0.02)"/><path class="cls-5" d="M18.67,73.05a2,2,0,0,1,.28.56,9.24,9.24,0,0,0-2,1.83A.94.94,0,0,1,16.7,75,6.85,6.85,0,0,0,18.67,73.05Z" transform="translate(-2.19 0.02)"/><path class="cls-28" d="M37.25,77A65.27,65.27,0,0,0,40.91,83Q38.42,80.66,36,78.18C36.39,77.76,36.81,77.36,37.25,77Z" transform="translate(-2.19 0.02)"/><path class="cls-29" d="M33.73,76.56c.58.51,1.14,1,1.69,1.62a2.91,2.91,0,0,1-.56.5Z" transform="translate(-2.19 0.02)"/><path class="cls-5" d="M33.31,75.58l2.39,2.25,1.41-1.27a.81.81,0,0,1,.14.43c-.44.37-.86.77-1.27,1.19q2.45,2.47,4.93,4.86a25.28,25.28,0,0,1,2.25,2.82q-3.69-3.58-7.32-7.25a.76.76,0,0,0-.7.49.94.94,0,0,1-.28-.42,2.91,2.91,0,0,0,.56-.5c-.55-.57-1.11-1.11-1.69-1.62A4.46,4.46,0,0,0,33.31,75.58Z" transform="translate(-2.19 0.02)"/><path class="cls-30" d="M43.16,85.86l3,2.81a1.13,1.13,0,0,1,.07.57c-.52.54-1.06,1.06-1.62,1.54A42.05,42.05,0,0,1,35.14,79.1a.76.76,0,0,1,.7-.49Q39.47,82.27,43.16,85.86Z" transform="translate(-2.19 0.02)"/><path class="cls-31" d="M13.6,78.68l1.12.42L18.53,83A25.64,25.64,0,0,0,14.3,81.7,44.1,44.1,0,0,0,24,92.76,35.64,35.64,0,0,1,11.49,81.07,23.73,23.73,0,0,1,13.6,78.68Z" transform="translate(-2.19 0.02)"/><path class="cls-5" d="M13.32,78.68h.28a23.73,23.73,0,0,0-2.11,2.39,1.06,1.06,0,0,1-.29-.42Z" transform="translate(-2.19 0.02)"/><path class="cls-5" d="M14.72,79.1a1.6,1.6,0,0,1,.85.28q1.84,1.84,3.52,3.8L18.53,83Z" transform="translate(-2.19 0.02)"/><path class="cls-32" d="M32.46,81.63A44.73,44.73,0,0,0,48.23,97.47a39.13,39.13,0,0,1-17-14.29A9.71,9.71,0,0,1,32.46,81.63Z" transform="translate(-2.19 0.02)"/><path class="cls-5" d="M32.32,81.35a.22.22,0,0,1,.14.28,9.71,9.71,0,0,0-1.26,1.55,1.06,1.06,0,0,1-.29-.42A10.44,10.44,0,0,1,32.32,81.35Z" transform="translate(-2.19 0.02)"/><path class="cls-10" d="M50.48,85.29a24.47,24.47,0,0,0,15.77,5.49L64,93.18a24.71,24.71,0,0,1-15.49-5.77C49.17,86.7,49.83,86,50.48,85.29Z" transform="translate(-2.19 0.02)"/><path class="cls-10" d="M50.34,85.15a.12.12,0,0,1,.14.14c-.65.71-1.31,1.41-2,2.12a.45.45,0,0,1-.28-.29C48.94,86.47,49.64,85.81,50.34,85.15Z" transform="translate(-2.19 0.02)"/><path class="cls-33" d="M27,87.26A38.09,38.09,0,0,0,33,92.83a26.34,26.34,0,0,1-6.9-4.72A3.57,3.57,0,0,1,27,87.26Z" transform="translate(-2.19 0.02)"/><path class="cls-5" d="M26.69,86.84a.94.94,0,0,1,.28.42,3.57,3.57,0,0,0-.84.85.41.41,0,0,1-.28-.28Z" transform="translate(-2.19 0.02)"/><path class="cls-5" d="M46.12,88.67l2.67,2.26L54,96.28a4.17,4.17,0,0,1-.84-.29Q50,92.71,46.68,89.45a5.85,5.85,0,0,0-1.83,1.62.43.43,0,0,1-.28-.29c.56-.48,1.1-1,1.62-1.54A1.13,1.13,0,0,0,46.12,88.67Z" transform="translate(-2.19 0.02)"/><path class="cls-18" d="M53.16,96a32.72,32.72,0,0,1-8.31-4.92,5.85,5.85,0,0,1,1.83-1.62Q50,92.71,53.16,96Z" transform="translate(-2.19 0.02)"/><path class="cls-10" d="M66.82,90.78a19.27,19.27,0,0,1,3.23.15l2.12,2.25H64.56Z" transform="translate(-2.19 0.02)"/><path class="cls-10" d="M70.62,90.93q8.52,0,17,.28L86.1,92.9q-6.75.06-13.51.28Z" transform="translate(-2.19 0.02)"/><path class="cls-10" d="M88.07,91.21a32.82,32.82,0,0,1,4.09.14,7.9,7.9,0,0,0,1.26,1.26c-2.22.14-4.48.19-6.75.15Z" transform="translate(-2.19 0.02)"/><path class="cls-10" d="M92.16,91.35h.56l1.13,1.26h-.43A7.9,7.9,0,0,1,92.16,91.35Z" transform="translate(-2.19 0.02)"/><path class="cls-10" d="M92.72,91.35q9.3.29,18.58.63-8.72.43-17.45.63Z" transform="translate(-2.19 0.02)"/><path class="cls-5" d="M48.79,90.93a30.4,30.4,0,0,0,10,4.57c.8.13,1.6.25,2.39.35l-1.69,1.83A21.31,21.31,0,0,1,54,96.28Z" transform="translate(-2.19 0.02)"/><path class="cls-10" d="M70.05,90.93h.57l2,2.25h-.42Z" transform="translate(-2.19 0.02)"/><path class="cls-10" d="M87.65,91.21h.42l-1.4,1.55a1,1,0,0,1-.57.14Z" transform="translate(-2.19 0.02)"/><path class="cls-10" d="M66.25,90.78h.57l-2.26,2.4H64Z" transform="translate(-2.19 0.02)"/><path class="cls-5" d="M61.18,95.85a.43.43,0,0,1,.43.14,14.2,14.2,0,0,1-1.69,1.69h-.43Z" transform="translate(-2.19 0.02)"/><path class="cls-34" d="M61.61,96q7,.32,13.93.43l1,1.12q-6.12.28-12.25.42a26.19,26.19,0,0,1-4.36-.28A14.2,14.2,0,0,0,61.61,96Z" transform="translate(-2.19 0.02)"/><path class="cls-35" d="M76,96.42c2.08.07,4.15.16,6.19.28l-.56.7c-1.55.11-3.1.16-4.65.14A8,8,0,0,0,76,96.42Z" transform="translate(-2.19 0.02)"/><path class="cls-5" d="M75.54,96.42H76a8,8,0,0,1,1,1.12h-.42Z" transform="translate(-2.19 0.02)"/><path class="cls-36" d="M82.58,96.7c2.5,0,5,.16,7.47.35-2.68.16-5.35.27-8,.35Z" transform="translate(-2.19 0.02)"/><path class="cls-5" d="M82.16,96.7h.42l-.56.7H81.6Z" transform="translate(-2.19 0.02)"/><path d="M47.18,28.18H61.77a12,12,0,0,1,1.24.1c.07.25.17.42.13.51-2,3.75-2.39,7.76-2.29,11.94.18,7.49.09,15,.17,22.47C61.1,71,65.5,75.83,73.28,76.78c3.55.43,6.17-.92,7.26-4.33a27.29,27.29,0,0,0,1.28-7.76c.15-9.1.2-18.21,0-27.31-.07-3-1.07-6-1.66-9H91.69c-3.81,11-1.27,22.39-2,33.56a41.13,41.13,0,0,1-.74,6.76c-1.94,8-7.87,13-16.14,13.63a37,37,0,0,1-8.8-.22c-8-1.39-12.51-6.29-13.63-14.36a48.2,48.2,0,0,1-.45-6.36q-.09-10.79,0-21.59C49.93,35.83,49.63,32,47.18,28.18Z" transform="translate(-2.19 0.02)"/><path d="M127.39,82.56V79.41c0-14.17,0-28.34,0-42.51,0-3.09-.5-6-2.79-8.66l11.68-5.3V49.32c2-1.37,3.76-2.55,5.51-3.7a20.07,20.07,0,0,1,1.89-1.13c6.46-3.39,11.49-1.87,14.48,4.75A30,30,0,0,1,159,73c-3.07,8-9.85,11.5-18.1,8.89C136.35,80.46,132.11,78.59,127.39,82.56Zm8.91-21h-.17c.17,3.65.12,7.33.58,10.94.42,3.4,3.49,5.67,7,5.78,3.76.12,5.73-1.36,6.69-5.29a35.93,35.93,0,0,0,0-17c-.87-3.74-2.82-5.34-6.71-5.42a40.53,40.53,0,0,0-5.68.59c-1.3.16-1.84.82-1.78,2.23C136.38,56.14,136.3,58.86,136.3,61.57Z" transform="translate(-2.19 0.02)"/><path d="M200.77,47.12l10.87-4.91v7c1-.67,1.54-1.14,2.19-1.49,3.14-1.73,6.14-3.91,9.49-5,6-2,10.92,1.42,11.34,7.68.34,5.13.24,10.28.29,15.42,0,5.41-.49,10.9,2.92,16h-13.7c0-.22-.12-.46,0-.62,4-8.15,2.28-16.87,2.46-25.37,0-2.68-1.89-4.39-4.41-5.22a13,13,0,0,0-9.08.5,2.33,2.33,0,0,0-1.18,1.74c0,7-.13,14,.23,20.93.14,2.69,1.4,5.31,2.17,8H200.63c4.18-8.85,1.87-18.26,2.19-27.44C202.9,52,201.57,49.76,200.77,47.12Z" transform="translate(-2.19 0.02)"/><path d="M237.91,28.3h45.81l-3.88,9.62c-2.23-1.48-4.13-3.32-6.39-4.08s-4.91-.48-7.72-.67v2.65c0,10.79,0,21.59,0,32.38a40.52,40.52,0,0,0,.35,6.8,50.13,50.13,0,0,0,2,6.36H252.77c2.81-3.88,2.71-8.13,2.69-12.4-.05-11,0-22,0-33V33.17c-2.7.2-5.32-.07-7.58.7s-4,2.55-6.26,4C240.38,34.74,239.22,31.7,237.91,28.3Z" transform="translate(-2.19 0.02)"/><path d="M283.46,43.85H300.3c-2.56,2.63-2.18,5.36-1.25,8.2,2.1,6.48,4.14,13,6.35,19.92.45-.94.75-1.47,1-2,1.93-5.23,3.73-10.51,5.81-15.68,1.42-3.52,1.2-6.55-1.56-9.28a9.93,9.93,0,0,1-.79-1.1h12.9c0,.11.13.31.08.36-5.13,5.23-6.78,12.26-9.62,18.65-2.77,6.23-5.14,12.63-7.88,18.88-3.15,7.15-8,12.66-15.9,14.78-3.9,1-8.61,0-10.91-1.82l7.18-8a36,36,0,0,0,2.82,4.11c1.93,2.14,4.28,2.12,6.41.17a11.76,11.76,0,0,0,2.92-11.67c-3-8.13-5.77-16.31-8.92-24.37C287.4,51.12,285.28,47.52,283.46,43.85Z" transform="translate(-2.19 0.02)"/><path d="M171.66,54.51c-.92-2.26-1.88-4.79-3-7.26-.55-1.2-.16-1.84.8-2.53A13.31,13.31,0,0,1,181,42.3a41,41,0,0,1,10,4.42c3.16,1.88,4.53,5.05,4.47,8.81-.08,4.7,0,9.4,0,14.1,0,3.12.14,6.16,2.62,8.77-2.7,1.15-5.13,2.36-7.69,3.16a3.2,3.2,0,0,1-2.7-1.24A19.37,19.37,0,0,1,186,76.08c-1.64,1.29-3.4,2.82-5.31,4.13-4.38,3-7.54,3-11.31-.69a29.21,29.21,0,0,1-5.66-8c-1.57-3.23-.47-5.38,2.79-7q8.87-4.47,17.81-8.81c1.24-.6,2-1.34,1.56-2.67-.61-2-.89-5-2.2-5.55-1.54-.68-4.31.32-6,1.41C175.41,50.33,173.7,52.54,171.66,54.51Zm14.7,3.67-.86-.28c-3.42,2.13-6.91,4.16-10.21,6.45a5,5,0,0,0-1.88,5.88c.55,1.93,1.66,3.46,3.73,3.55a55.09,55.09,0,0,0,7.91-.4,2.08,2.08,0,0,0,1.25-1.58C186.4,67.26,186.36,62.72,186.36,58.18Z" transform="translate(-2.19 0.02)"/><path d="M411,55.52c-3.11-2.09-6-4.3-9.11-6a17.14,17.14,0,0,0-5.93-1.42c-.81-.1-1.72.55-2.58.85.4.81.6,1.87,1.24,2.39,3.27,2.62,6.66,5.08,10,7.63,3,2.28,6.09,4.42,8.86,6.93,5.91,5.36,4.52,12.69-2.95,15.46a24.39,24.39,0,0,1-18.15-.08c-2.3-.94-4.28-2.68-6.48-4.1,2.79-2.63,5.19-4.89,7.72-7.29.16.22.61.85,1.11,1.44,3.25,3.9,7.29,6.36,12.48,6.62a6.69,6.69,0,0,0,2.19-.19c1.85-.52,2.17-1.52.74-2.76-1.77-1.54-3.74-2.85-5.63-4.24-3.5-2.57-7.1-5-10.44-7.76a21.25,21.25,0,0,1-4.44-5.15c-2.92-4.73-1.73-9.51,2.89-12.62,5.14-3.47,15.13-3.4,20.23.11,1.08.74,1.64,1.44,1,2.89C412.63,50.64,411.82,53.16,411,55.52Z" transform="translate(-2.19 0.02)"/><path d="M384.25,48.3,370.07,65.81a.75.75,0,0,0-.14.17c-.73,1.63-3.42,2.39-2.49,4.7,1.28,3.17,3.29,6,7,6.3a70.1,70.1,0,0,0,8.8-.23c.41,0,.81-.08,1.34-.14a5.07,5.07,0,0,1-.32.73C378.63,85,363,85.41,358.34,74.56a29.57,29.57,0,0,1-.54-22.75C362.48,39.58,379.39,40.78,384.25,48.3ZM365.6,66.1l.67.11c.68-1,1.39-1.94,2-2.94,1.88-2.88,3.89-5.7,5.54-8.71,1.5-2.71.57-4.76-2.35-5.61a26.17,26.17,0,0,0-5.43-.87,2.57,2.57,0,0,0-2.95,2.36,10.77,10.77,0,0,0-.17,3.48C363.74,58,364.7,62,365.6,66.1Z" transform="translate(-2.19 0.02)"/><path d="M108.44,81.79h-14c3.62-5.42,2.77-11.36,2.63-17.12s1.47-11.81-2.59-17.37L106.05,42v6.57c5.74-5.11,11.39-9.13,19.18-3.84l-7.65,9.49c-3.42-3.84-6.16-4.74-10-3.22a2.48,2.48,0,0,0-1.39,1.75c-.08,6.9-.22,13.8.1,20.68C106.39,76.19,107.65,78.89,108.44,81.79Z" transform="translate(-2.19 0.02)"/><path d="M335.74,42v6.56c5.8-5,11.45-9.37,19.19-3.79l-7.65,9.47c-2.57-3.71-5.89-4.65-10-3.36a1.91,1.91,0,0,0-1.57,2.19c.09,6.47-.12,12.94.22,19.39.17,3.07,1.32,6.08,2,9.18H324.48c3.42-8.71,3.38-28.4-.17-34.41Z" transform="translate(-2.19 0.02)"/></svg>