<svg xmlns="http://www.w3.org/2000/svg" xmlns:xlink="http://www.w3.org/1999/xlink" width="330" zoomAndPan="magnify" viewBox="0 0 247.5 74.999997" height="100" preserveAspectRatio="xMidYMid meet" version="1.0"><defs><g/><clipPath id="3a9ab80143"><path d="M 22 4 L 70 4 L 70 73.304688 L 22 73.304688 Z M 22 4 " clip-rule="nonzero"/></clipPath><clipPath id="392885f09c"><path d="M 26 8 L 84.839844 8 L 84.839844 70 L 26 70 Z M 26 8 " clip-rule="nonzero"/></clipPath><clipPath id="0ef3eaad59"><path d="M 3.257812 1.449219 L 49 1.449219 L 49 73.304688 L 3.257812 73.304688 Z M 3.257812 1.449219 " clip-rule="nonzero"/></clipPath></defs><g clip-path="url(#3a9ab80143)"><path fill="#ea580c" d="M 31.738281 65.332031 L 30.417969 63.761719 C 29.964844 63.246094 29.621094 62.652344 29.214844 62.101562 C 28.390625 61.003906 27.765625 59.792969 27.078125 58.613281 C 24.539062 53.78125 23.125 48.429688 22.589844 43.035156 C 22.089844 37.632812 22.589844 32.144531 24.054688 26.917969 C 24.746094 24.289062 25.832031 21.777344 27.027344 19.34375 L 28.042969 17.570312 C 28.363281 16.96875 28.742188 16.402344 29.144531 15.851562 C 29.542969 15.300781 29.917969 14.730469 30.335938 14.191406 L 31.664062 12.636719 C 35.253906 8.570312 40.179688 5.46875 45.613281 4.714844 C 46.277344 4.558594 46.964844 4.59375 47.640625 4.550781 C 48.320312 4.523438 48.996094 4.484375 49.675781 4.542969 C 51.023438 4.640625 52.363281 4.875 53.65625 5.246094 C 56.246094 5.988281 58.636719 7.269531 60.726562 8.894531 C 56.289062 6.03125 50.851562 4.734375 45.804688 5.851562 C 40.738281 6.832031 36.316406 9.925781 33.050781 13.839844 L 31.859375 15.347656 C 31.480469 15.863281 31.148438 16.414062 30.792969 16.949219 C 30.042969 17.988281 29.511719 19.171875 28.871094 20.28125 C 27.792969 22.609375 26.8125 25 26.210938 27.507812 C 24.898438 32.476562 24.425781 37.695312 24.945312 42.824219 C 25.417969 47.945312 26.742188 53.011719 29.066406 57.582031 C 29.691406 58.699219 30.253906 59.855469 31.003906 60.894531 C 31.371094 61.414062 31.679688 61.984375 32.09375 62.46875 L 33.292969 63.960938 C 33.679688 64.46875 34.167969 64.882812 34.601562 65.351562 C 35.042969 65.808594 35.484375 66.273438 35.988281 66.660156 L 37.449219 67.882812 L 39.03125 68.941406 C 41.199219 70.242188 43.558594 71.269531 46.070312 71.691406 C 48.539062 72.089844 51.234375 72.039062 53.871094 72.125 C 59.160156 72.289062 64.449219 72.445312 69.738281 72.707031 C 64.449219 72.96875 59.160156 73.125 53.871094 73.289062 C 51.226562 73.332031 48.613281 73.527344 45.832031 73.226562 C 43.089844 72.898438 40.484375 71.851562 38.082031 70.527344 C 35.65625 69.199219 33.605469 67.324219 31.738281 65.332031 " fill-opacity="1" fill-rule="nonzero"/></g><g clip-path="url(#392885f09c)"><path fill="#fb923c" d="M 28.613281 41.964844 L 28.851562 43.988281 C 28.910156 44.667969 29.039062 45.332031 29.175781 45.996094 C 29.320312 46.660156 29.410156 47.335938 29.59375 47.984375 C 30.222656 50.625 31.1875 53.167969 32.398438 55.574219 C 33.609375 57.988281 35.226562 60.171875 37.070312 62.09375 C 38.925781 64.007812 41.105469 65.609375 43.535156 66.65625 L 45.398438 67.316406 C 46.035156 67.484375 46.6875 67.597656 47.328125 67.75 C 48.628906 67.929688 49.933594 68.015625 51.363281 68.019531 C 62.558594 68.191406 73.753906 68.449219 84.945312 68.941406 C 73.753906 69.433594 62.558594 69.691406 51.363281 69.867188 C 50 69.910156 48.5 69.875 47.027344 69.710938 C 46.304688 69.570312 45.570312 69.445312 44.851562 69.273438 L 42.746094 68.574219 C 40 67.460938 37.554688 65.730469 35.480469 63.675781 C 31.304688 59.535156 28.707031 54.121094 27.296875 48.546875 C 27.101562 47.851562 27.011719 47.132812 26.863281 46.425781 C 26.722656 45.71875 26.589844 45.007812 26.53125 44.289062 L 26.292969 42.140625 L 26.21875 39.984375 C 26.210938 39.625 26.1875 39.265625 26.1875 38.90625 L 26.230469 37.828125 C 26.265625 37.109375 26.277344 36.390625 26.332031 35.671875 C 26.515625 34.242188 26.617188 32.804688 26.953125 31.398438 C 27.195312 29.976562 27.621094 28.597656 28.015625 27.214844 C 28.234375 26.527344 28.507812 25.859375 28.753906 25.179688 C 28.984375 24.496094 29.289062 23.84375 29.597656 23.191406 C 30.167969 21.863281 30.914062 20.621094 31.644531 19.378906 L 32.894531 17.601562 C 33.296875 17.003906 33.8125 16.484375 34.269531 15.921875 C 36.183594 13.757812 38.445312 11.859375 41.039062 10.53125 C 43.617188 9.195312 46.523438 8.4375 49.421875 8.484375 C 52.320312 8.484375 55.179688 9.261719 57.683594 10.613281 C 60.199219 11.960938 62.355469 13.859375 64.128906 16.023438 C 62.171875 14.023438 59.902344 12.339844 57.394531 11.195312 C 54.890625 10.0625 52.148438 9.476562 49.445312 9.640625 C 46.738281 9.730469 44.09375 10.546875 41.769531 11.890625 C 39.4375 13.230469 37.382812 15.035156 35.667969 17.117188 C 35.261719 17.65625 34.796875 18.148438 34.4375 18.722656 L 33.324219 20.421875 C 32.679688 21.609375 31.992188 22.777344 31.484375 24.039062 C 31.203125 24.65625 30.929688 25.277344 30.726562 25.925781 C 30.511719 26.570312 30.265625 27.203125 30.070312 27.851562 C 29.730469 29.167969 29.347656 30.46875 29.148438 31.816406 C 28.863281 33.148438 28.773438 34.507812 28.609375 35.855469 C 28.5625 36.53125 28.558594 37.214844 28.527344 37.890625 L 28.492188 38.910156 C 28.492188 39.25 28.515625 39.589844 28.527344 39.929688 L 28.613281 41.964844 " fill-opacity="1" fill-rule="nonzero"/></g><g clip-path="url(#0ef3eaad59)"><path fill="#ea580c" d="M 5.820312 39.183594 L 10.15625 42.832031 C 10.414062 45.574219 10.917969 48.296875 11.695312 50.9375 L 6.796875 48.160156 C 6.316406 45.84375 6 43.488281 5.886719 41.121094 C 5.847656 40.476562 5.828125 39.828125 5.820312 39.183594 Z M 7.378906 50.671875 L 12.582031 53.621094 C 13.109375 55.023438 13.71875 56.394531 14.421875 57.722656 C 14.9375 58.699219 15.515625 59.644531 16.128906 60.570312 L 10.40625 58.625 C 10.113281 58.058594 9.835938 57.492188 9.574219 56.914062 C 8.675781 54.894531 7.941406 52.804688 7.378906 50.671875 Z M 16.078125 56.914062 C 15.558594 55.753906 15.101562 54.566406 14.691406 53.363281 L 18.582031 49.097656 C 19.179688 51.503906 19.980469 53.863281 21.007812 56.136719 L 18.195312 60.914062 C 17.410156 59.621094 16.699219 58.285156 16.078125 56.914062 Z M 18.746094 27.3125 L 13.136719 29.890625 C 13.453125 28.238281 13.851562 26.601562 14.335938 24.984375 C 14.617188 24.078125 14.941406 23.183594 15.285156 22.292969 L 21.332031 20.277344 C 20.25 22.539062 19.386719 24.902344 18.746094 27.3125 Z M 17.300781 38.972656 C 17.320312 41.609375 17.59375 44.238281 18.085938 46.828125 L 14.035156 51.269531 C 13.84375 50.578125 13.664062 49.882812 13.507812 49.183594 C 13.007812 47 12.667969 44.777344 12.488281 42.542969 Z M 12.359375 40.28125 C 12.265625 37.839844 12.367188 35.394531 12.660156 32.972656 C 12.691406 32.695312 12.738281 32.417969 12.773438 32.140625 L 18.207031 29.648438 C 17.964844 30.824219 17.769531 32.007812 17.636719 33.195312 C 17.496094 34.316406 17.410156 35.445312 17.355469 36.574219 Z M 13.613281 21.96875 C 13.246094 22.761719 12.894531 23.566406 12.589844 24.382812 C 11.980469 25.984375 11.492188 27.628906 11.101562 29.296875 L 7.953125 24.628906 C 8.65625 22.433594 9.546875 20.292969 10.621094 18.238281 Z M 7.273438 27.007812 L 10.578125 31.90625 C 10.117188 34.652344 9.933594 37.441406 10 40.226562 L 5.855469 36.738281 C 5.910156 35.480469 6.007812 34.222656 6.15625 32.972656 C 6.378906 30.960938 6.765625 28.96875 7.273438 27.007812 Z M 3.523438 41.238281 C 3.867188 46.949219 5.226562 52.652344 7.921875 57.722656 C 10.574219 62.761719 14.5625 67.269531 19.632812 69.753906 C 16.417969 67.394531 13.84375 64.40625 11.808594 61.101562 L 18.089844 63.238281 C 20.324219 65.941406 23.023438 68.230469 26.132812 69.753906 C 23.441406 67.78125 21.203125 65.359375 19.347656 62.6875 L 21.996094 58.191406 C 23.578125 61.222656 25.566406 64.054688 27.945312 66.542969 C 30.777344 69.421875 34.144531 71.832031 37.894531 73.363281 C 34.382812 71.382812 31.328125 68.804688 28.820312 65.816406 C 26.320312 62.820312 24.371094 59.441406 22.894531 55.902344 C 21.449219 52.351562 20.449219 48.632812 19.984375 44.851562 C 19.859375 43.90625 19.808594 42.953125 19.710938 42.007812 C 19.640625 41.058594 19.644531 40.101562 19.609375 39.152344 C 19.601562 38.199219 19.683594 37.25 19.714844 36.296875 C 19.746094 35.824219 19.742188 35.347656 19.800781 34.875 L 19.984375 33.457031 C 20.152344 31.558594 20.589844 29.703125 20.992188 27.84375 L 21.804688 25.101562 C 22.082031 24.1875 22.484375 23.320312 22.804688 22.421875 C 24.226562 18.875 26.1875 15.539062 28.617188 12.542969 C 31.0625 9.570312 34.027344 6.949219 37.484375 5.050781 C 40.917969 3.121094 44.84375 1.96875 48.90625 1.714844 C 44.835938 1.457031 40.675781 2.328125 36.941406 4.0625 C 33.207031 5.804688 29.898438 8.375 27.191406 11.410156 C 25.425781 13.398438 23.894531 15.566406 22.597656 17.859375 L 16.269531 19.96875 C 17.816406 16.628906 19.828125 13.484375 22.378906 10.710938 C 19.128906 13.179688 16.507812 16.457031 14.546875 20.101562 L 11.621094 16.457031 C 12.835938 14.421875 14.242188 12.488281 15.875 10.710938 C 11.398438 14.117188 8.09375 19.050781 6.085938 24.382812 C 4.050781 29.730469 3.253906 35.523438 3.523438 41.238281 " fill-opacity="1" fill-rule="nonzero"/></g><g fill="#000000" fill-opacity="1"><g transform="translate(36.059295, 60.747869)"><g><path d="M 2.609375 -34.203125 C 2.609375 -35.546875 2.578125 -36.628906 2.515625 -37.453125 C 2.453125 -38.285156 2.332031 -39 2.15625 -39.59375 C 1.976562 -40.1875 1.710938 -40.800781 1.359375 -41.4375 L 10.953125 -41.4375 C 10.597656 -40.800781 10.320312 -40.1875 10.125 -39.59375 C 9.925781 -39 9.785156 -38.285156 9.703125 -37.453125 C 9.628906 -36.628906 9.59375 -35.546875 9.59375 -34.203125 L 9.59375 -15.390625 C 9.59375 -11.878906 9.679688 -9.144531 9.859375 -7.1875 C 10.035156 -5.238281 10.390625 -3.878906 10.921875 -3.109375 C 11.453125 -2.335938 12.234375 -1.953125 13.265625 -1.953125 C 14.328125 -1.953125 15.113281 -2.335938 15.625 -3.109375 C 16.132812 -3.878906 16.476562 -5.238281 16.65625 -7.1875 C 16.832031 -9.144531 16.921875 -11.878906 16.921875 -15.390625 L 16.921875 -34.203125 C 16.921875 -35.546875 16.890625 -36.628906 16.828125 -37.453125 C 16.773438 -38.285156 16.660156 -39 16.484375 -39.59375 C 16.304688 -40.1875 16.019531 -40.800781 15.625 -41.4375 L 25.21875 -41.4375 C 24.695312 -40.488281 24.347656 -39.539062 24.171875 -38.59375 C 23.992188 -37.644531 23.90625 -36.179688 23.90625 -34.203125 L 23.90625 -11.1875 C 23.90625 -8.539062 23.519531 -6.445312 22.75 -4.90625 C 21.988281 -3.375 21.023438 -2.222656 19.859375 -1.453125 C 18.691406 -0.679688 17.523438 -0.175781 16.359375 0.0625 C 15.203125 0.300781 14.207031 0.421875 13.375 0.421875 C 12.507812 0.421875 11.460938 0.300781 10.234375 0.0625 C 9.015625 -0.175781 7.820312 -0.679688 6.65625 -1.453125 C 5.488281 -2.222656 4.519531 -3.375 3.75 -4.90625 C 2.988281 -6.445312 2.609375 -8.539062 2.609375 -11.1875 Z M 2.609375 -34.203125 "/></g></g></g><g fill="#000000" fill-opacity="1"><g transform="translate(58.607445, 60.747869)"><g><path d="M 1.421875 0 C 1.972656 -0.945312 2.328125 -1.90625 2.484375 -2.875 C 2.640625 -3.84375 2.71875 -5.3125 2.71875 -7.28125 L 2.71875 -33.859375 C 2.71875 -35.828125 2.640625 -37.351562 2.484375 -38.4375 C 2.328125 -39.519531 1.972656 -40.535156 1.421875 -41.484375 C 2.441406 -41.484375 3.644531 -41.484375 5.03125 -41.484375 C 6.414062 -41.484375 7.804688 -41.484375 9.203125 -41.484375 C 10.609375 -41.484375 11.84375 -41.484375 12.90625 -41.484375 C 14.632812 -41.484375 16.25 -41.273438 17.75 -40.859375 C 19.25 -40.453125 20.460938 -39.675781 21.390625 -38.53125 C 22.316406 -37.382812 22.78125 -35.6875 22.78125 -33.4375 C 22.78125 -31.425781 22.273438 -29.582031 21.265625 -27.90625 C 20.265625 -26.226562 19.132812 -24.738281 17.875 -23.4375 C 18.46875 -21.070312 19.019531 -18.910156 19.53125 -16.953125 C 20.039062 -15.003906 20.492188 -13.238281 20.890625 -11.65625 C 21.753906 -8.425781 22.503906 -5.929688 23.140625 -4.171875 C 23.773438 -2.410156 24.484375 -1.019531 25.265625 0 L 15.265625 0 C 15.503906 -0.4375 15.644531 -1.164062 15.6875 -2.1875 C 15.726562 -3.21875 15.628906 -4.34375 15.390625 -5.5625 C 15.304688 -6 15.1875 -6.550781 15.03125 -7.21875 C 14.875 -7.894531 14.695312 -8.644531 14.5 -9.46875 C 14.226562 -10.695312 13.875 -12.019531 13.4375 -13.4375 C 13 -14.851562 12.523438 -16.488281 12.015625 -18.34375 C 11.347656 -17.71875 10.796875 -17.03125 10.359375 -16.28125 C 9.921875 -15.53125 9.703125 -14.703125 9.703125 -13.796875 L 9.703125 -7.28125 C 9.703125 -5.3125 9.78125 -3.84375 9.9375 -2.875 C 10.101562 -1.90625 10.460938 -0.945312 11.015625 0 Z M 11.84375 -38.953125 L 9.703125 -38.953125 L 9.703125 -18.578125 C 10.492188 -19.410156 11.363281 -20.523438 12.3125 -21.921875 C 13.257812 -23.328125 14.085938 -25.003906 14.796875 -26.953125 C 15.503906 -28.910156 15.859375 -31.132812 15.859375 -33.625 C 15.859375 -35.039062 15.515625 -36.28125 14.828125 -37.34375 C 14.140625 -38.414062 13.144531 -38.953125 11.84375 -38.953125 Z M 11.84375 -38.953125 "/></g></g></g><g fill="#000000" fill-opacity="1"><g transform="translate(80.445425, 60.747869)"><g><path d="M 1.421875 -41.4375 L 12.90625 -41.4375 C 15.863281 -41.4375 18.28125 -40.941406 20.15625 -39.953125 C 22.03125 -38.960938 22.96875 -37.1875 22.96875 -34.625 C 22.96875 -33.082031 22.5625 -31.804688 21.75 -30.796875 C 20.9375 -29.796875 19.898438 -28.898438 18.640625 -28.109375 C 17.378906 -27.328125 16.097656 -26.519531 14.796875 -25.6875 C 15.109375 -25.769531 15.441406 -25.828125 15.796875 -25.859375 C 16.148438 -25.898438 16.507812 -25.921875 16.875 -25.921875 C 19.3125 -25.921875 21.238281 -24.941406 22.65625 -22.984375 C 24.082031 -21.035156 24.796875 -18.148438 24.796875 -14.328125 C 24.796875 -11.085938 24.234375 -8.410156 23.109375 -6.296875 C 21.984375 -4.191406 20.484375 -2.613281 18.609375 -1.5625 C 16.734375 -0.519531 14.65625 0 12.375 0 C 10.476562 0 8.648438 0 6.890625 0 C 5.140625 0 3.316406 0 1.421875 0 C 1.972656 -0.945312 2.328125 -1.960938 2.484375 -3.046875 C 2.640625 -4.128906 2.71875 -5.660156 2.71875 -7.640625 L 2.71875 -33.859375 C 2.71875 -35.828125 2.640625 -37.34375 2.484375 -38.40625 C 2.328125 -39.476562 1.972656 -40.488281 1.421875 -41.4375 Z M 9.703125 -16.578125 L 9.703125 -7.640625 L 9.765625 -2.25 L 11.953125 -2.25 C 13.453125 -2.25 14.625 -2.710938 15.46875 -3.640625 C 16.320312 -4.566406 16.925781 -5.835938 17.28125 -7.453125 C 17.632812 -9.078125 17.8125 -10.875 17.8125 -12.84375 C 17.8125 -20.34375 16.332031 -24.09375 13.375 -24.09375 C 12.382812 -24.09375 11.523438 -23.476562 10.796875 -22.25 C 10.066406 -21.03125 9.703125 -19.140625 9.703125 -16.578125 Z M 9.703125 -24.15625 C 10.773438 -25.175781 11.84375 -26.207031 12.90625 -27.25 C 13.96875 -28.300781 14.851562 -29.414062 15.5625 -30.59375 C 16.269531 -31.78125 16.625 -33.066406 16.625 -34.453125 C 16.625 -35.867188 16.304688 -37.039062 15.671875 -37.96875 C 15.046875 -38.894531 14.003906 -39.359375 12.546875 -39.359375 L 9.703125 -39.359375 Z M 9.703125 -24.15625 "/></g></g></g><g fill="#000000" fill-opacity="1"><g transform="translate(102.579305, 60.747869)"><g><path d="M 0.65625 0 C 0.925781 -0.507812 1.207031 -1.1875 1.5 -2.03125 C 1.800781 -2.882812 2.09375 -4.140625 2.375 -5.796875 C 2.800781 -8.203125 3.269531 -10.816406 3.78125 -13.640625 C 4.300781 -16.460938 4.816406 -19.289062 5.328125 -22.125 C 5.835938 -24.96875 6.316406 -27.632812 6.765625 -30.125 C 7.222656 -32.613281 7.59375 -34.707031 7.875 -36.40625 C 8.070312 -37.582031 8.160156 -38.601562 8.140625 -39.46875 C 8.117188 -40.34375 7.953125 -41 7.640625 -41.4375 L 15.984375 -41.4375 C 15.660156 -41 15.488281 -40.34375 15.46875 -39.46875 C 15.457031 -38.601562 15.550781 -37.582031 15.75 -36.40625 C 16.0625 -34.707031 16.441406 -32.613281 16.890625 -30.125 C 17.347656 -27.632812 17.820312 -24.96875 18.3125 -22.125 C 18.8125 -19.289062 19.316406 -16.460938 19.828125 -13.640625 C 20.335938 -10.816406 20.8125 -8.203125 21.25 -5.796875 C 21.5625 -4.140625 21.875 -2.882812 22.1875 -2.03125 C 22.507812 -1.1875 22.804688 -0.507812 23.078125 0 L 13.4375 0 C 13.875 -0.832031 14.128906 -1.710938 14.203125 -2.640625 C 14.285156 -3.566406 14.25 -4.5 14.09375 -5.4375 C 14.007812 -6.03125 13.90625 -6.632812 13.78125 -7.25 C 13.664062 -7.863281 13.570312 -8.484375 13.5 -9.109375 L 5.6875 -9.109375 C 5.5625 -8.484375 5.445312 -7.863281 5.34375 -7.25 C 5.25 -6.632812 5.164062 -6.03125 5.09375 -5.4375 C 4.9375 -4.5 4.90625 -3.566406 5 -2.640625 C 5.101562 -1.710938 5.347656 -0.832031 5.734375 0 Z M 6.03125 -11.484375 L 13.140625 -11.484375 C 12.703125 -14.160156 12.265625 -16.8125 11.828125 -19.4375 C 11.398438 -22.0625 11 -24.519531 10.625 -26.8125 C 10.25 -29.101562 9.90625 -31.035156 9.59375 -32.609375 C 9.3125 -31.035156 8.972656 -29.101562 8.578125 -26.8125 C 8.179688 -24.519531 7.765625 -22.0625 7.328125 -19.4375 C 6.898438 -16.8125 6.46875 -14.160156 6.03125 -11.484375 Z M 6.03125 -11.484375 "/></g></g></g><g fill="#000000" fill-opacity="1"><g transform="translate(122.227564, 60.747869)"><g><path d="M 1.359375 0 C 1.910156 -0.945312 2.273438 -1.90625 2.453125 -2.875 C 2.628906 -3.84375 2.71875 -5.3125 2.71875 -7.28125 L 2.71875 -34.203125 C 2.71875 -35.546875 2.675781 -36.628906 2.59375 -37.453125 C 2.519531 -38.285156 2.394531 -39 2.21875 -39.59375 C 2.039062 -40.1875 1.753906 -40.800781 1.359375 -41.4375 L 10.0625 -41.4375 L 20 -10.828125 C 20 -10.828125 20 -11.320312 20 -12.3125 C 20 -13.300781 20 -14.601562 20 -16.21875 C 20 -17.832031 19.988281 -19.585938 19.96875 -21.484375 C 19.957031 -23.378906 19.953125 -25.242188 19.953125 -27.078125 C 19.953125 -28.910156 19.953125 -30.535156 19.953125 -31.953125 C 19.953125 -33.378906 19.953125 -34.425781 19.953125 -35.09375 C 19.953125 -36.4375 19.921875 -37.441406 19.859375 -38.109375 C 19.796875 -38.785156 19.664062 -39.347656 19.46875 -39.796875 C 19.269531 -40.253906 18.992188 -40.800781 18.640625 -41.4375 L 23.796875 -41.4375 C 23.285156 -40.488281 22.929688 -39.53125 22.734375 -38.5625 C 22.535156 -37.59375 22.4375 -36.125 22.4375 -34.15625 C 22.4375 -33.601562 22.4375 -32.566406 22.4375 -31.046875 C 22.4375 -29.523438 22.425781 -27.726562 22.40625 -25.65625 C 22.382812 -23.582031 22.375 -21.378906 22.375 -19.046875 C 22.375 -16.722656 22.375 -14.4375 22.375 -12.1875 C 22.375 -9.9375 22.363281 -7.894531 22.34375 -6.0625 C 22.320312 -4.226562 22.3125 -2.757812 22.3125 -1.65625 C 22.3125 -0.550781 22.3125 0 22.3125 0 L 15.921875 0 L 5.09375 -33.328125 C 5.09375 -33.328125 5.09375 -32.78125 5.09375 -31.6875 C 5.09375 -30.601562 5.101562 -29.191406 5.125 -27.453125 C 5.144531 -25.722656 5.15625 -23.832031 5.15625 -21.78125 C 5.15625 -19.726562 5.160156 -17.722656 5.171875 -15.765625 C 5.191406 -13.816406 5.203125 -12.082031 5.203125 -10.5625 C 5.203125 -9.039062 5.203125 -7.945312 5.203125 -7.28125 C 5.203125 -5.3125 5.289062 -3.84375 5.46875 -2.875 C 5.644531 -1.90625 5.992188 -0.945312 6.515625 0 Z M 1.359375 0 "/></g></g></g><g fill="#000000" fill-opacity="1"><g transform="translate(143.355363, 60.747869)"><g><path d="M 0.953125 -28.0625 L 0.953125 -41.4375 L 22.140625 -41.4375 L 22.140625 -28.0625 L 21.421875 -28.0625 C 21.421875 -30.101562 21.222656 -31.992188 20.828125 -33.734375 C 20.429688 -35.472656 19.816406 -36.882812 18.984375 -37.96875 C 18.160156 -39.050781 17.117188 -39.59375 15.859375 -39.59375 L 15.03125 -39.65625 L 15.03125 -7.28125 C 15.03125 -5.3125 15.109375 -3.84375 15.265625 -2.875 C 15.421875 -1.90625 15.773438 -0.945312 16.328125 0 L 6.75 0 C 7.300781 -0.945312 7.65625 -1.90625 7.8125 -2.875 C 7.96875 -3.84375 8.046875 -5.3125 8.046875 -7.28125 L 8.046875 -39.65625 L 7.15625 -39.59375 C 5.894531 -39.59375 4.847656 -39.050781 4.015625 -37.96875 C 3.191406 -36.882812 2.582031 -35.472656 2.1875 -33.734375 C 1.789062 -31.992188 1.59375 -30.101562 1.59375 -28.0625 Z M 0.953125 -28.0625 "/></g></g></g><g fill="#000000" fill-opacity="1"><g transform="translate(162.411806, 60.747869)"><g><path d="M 8.28125 -15.328125 C 8.007812 -16.390625 7.65625 -17.867188 7.21875 -19.765625 C 6.78125 -21.660156 6.296875 -23.710938 5.765625 -25.921875 C 5.234375 -28.128906 4.671875 -30.296875 4.078125 -32.421875 C 3.492188 -34.554688 2.90625 -36.429688 2.3125 -38.046875 C 1.71875 -39.671875 1.164062 -40.800781 0.65625 -41.4375 L 11.1875 -41.4375 C 10.675781 -39.457031 10.546875 -37.273438 10.796875 -34.890625 C 11.054688 -32.503906 11.5 -29.988281 12.125 -27.34375 C 12.757812 -24.695312 13.375 -21.957031 13.96875 -19.125 C 14.601562 -21.957031 15.222656 -24.695312 15.828125 -27.34375 C 16.441406 -29.988281 16.875 -32.503906 17.125 -34.890625 C 17.382812 -37.273438 17.238281 -39.457031 16.6875 -41.4375 L 22.96875 -41.4375 C 22.445312 -40.800781 21.890625 -39.671875 21.296875 -38.046875 C 20.710938 -36.429688 20.125 -34.554688 19.53125 -32.421875 C 18.9375 -30.296875 18.375 -28.128906 17.84375 -25.921875 C 17.3125 -23.710938 16.828125 -21.671875 16.390625 -19.796875 C 15.960938 -17.921875 15.628906 -16.453125 15.390625 -15.390625 C 15.390625 -14.640625 15.390625 -13.757812 15.390625 -12.75 C 15.390625 -11.75 15.390625 -10.765625 15.390625 -9.796875 C 15.390625 -8.828125 15.390625 -7.988281 15.390625 -7.28125 C 15.390625 -5.3125 15.476562 -3.84375 15.65625 -2.875 C 15.832031 -1.90625 16.175781 -0.945312 16.6875 0 L 6.984375 0 C 7.535156 -0.945312 7.890625 -1.90625 8.046875 -2.875 C 8.203125 -3.84375 8.28125 -5.3125 8.28125 -7.28125 C 8.28125 -7.945312 8.28125 -8.765625 8.28125 -9.734375 C 8.28125 -10.703125 8.28125 -11.6875 8.28125 -12.6875 C 8.28125 -13.695312 8.28125 -14.578125 8.28125 -15.328125 Z M 8.28125 -15.328125 "/></g></g></g><g fill="#000000" fill-opacity="1"><g transform="translate(182.000878, 60.747869)"><g><path d="M 1.421875 0 C 1.972656 -0.945312 2.328125 -1.90625 2.484375 -2.875 C 2.640625 -3.84375 2.71875 -5.3125 2.71875 -7.28125 L 2.71875 -33.859375 C 2.71875 -35.828125 2.640625 -37.351562 2.484375 -38.4375 C 2.328125 -39.519531 1.972656 -40.535156 1.421875 -41.484375 C 2.441406 -41.484375 3.644531 -41.484375 5.03125 -41.484375 C 6.414062 -41.484375 7.804688 -41.484375 9.203125 -41.484375 C 10.609375 -41.484375 11.84375 -41.484375 12.90625 -41.484375 C 14.632812 -41.484375 16.25 -41.273438 17.75 -40.859375 C 19.25 -40.453125 20.460938 -39.675781 21.390625 -38.53125 C 22.316406 -37.382812 22.78125 -35.6875 22.78125 -33.4375 C 22.78125 -31.425781 22.273438 -29.582031 21.265625 -27.90625 C 20.265625 -26.226562 19.132812 -24.738281 17.875 -23.4375 C 18.46875 -21.070312 19.019531 -18.910156 19.53125 -16.953125 C 20.039062 -15.003906 20.492188 -13.238281 20.890625 -11.65625 C 21.753906 -8.425781 22.503906 -5.929688 23.140625 -4.171875 C 23.773438 -2.410156 24.484375 -1.019531 25.265625 0 L 15.265625 0 C 15.503906 -0.4375 15.644531 -1.164062 15.6875 -2.1875 C 15.726562 -3.21875 15.628906 -4.34375 15.390625 -5.5625 C 15.304688 -6 15.1875 -6.550781 15.03125 -7.21875 C 14.875 -7.894531 14.695312 -8.644531 14.5 -9.46875 C 14.226562 -10.695312 13.875 -12.019531 13.4375 -13.4375 C 13 -14.851562 12.523438 -16.488281 12.015625 -18.34375 C 11.347656 -17.71875 10.796875 -17.03125 10.359375 -16.28125 C 9.921875 -15.53125 9.703125 -14.703125 9.703125 -13.796875 L 9.703125 -7.28125 C 9.703125 -5.3125 9.78125 -3.84375 9.9375 -2.875 C 10.101562 -1.90625 10.460938 -0.945312 11.015625 0 Z M 11.84375 -38.953125 L 9.703125 -38.953125 L 9.703125 -18.578125 C 10.492188 -19.410156 11.363281 -20.523438 12.3125 -21.921875 C 13.257812 -23.328125 14.085938 -25.003906 14.796875 -26.953125 C 15.503906 -28.910156 15.859375 -31.132812 15.859375 -33.625 C 15.859375 -35.039062 15.515625 -36.28125 14.828125 -37.34375 C 14.140625 -38.414062 13.144531 -38.953125 11.84375 -38.953125 Z M 11.84375 -38.953125 "/></g></g></g><g fill="#000000" fill-opacity="1"><g transform="translate(203.838854, 60.747869)"><g><path d="M 2.71875 -34.203125 C 2.71875 -36.179688 2.640625 -37.644531 2.484375 -38.59375 C 2.328125 -39.539062 1.972656 -40.488281 1.421875 -41.4375 L 21.359375 -41.4375 L 21.359375 -28.0625 L 20.65625 -28.0625 C 20.65625 -30.101562 20.347656 -31.972656 19.734375 -33.671875 C 19.128906 -35.367188 18.179688 -36.726562 16.890625 -37.75 C 15.609375 -38.78125 13.960938 -39.296875 11.953125 -39.296875 L 9.703125 -39.296875 L 9.703125 -24.5 L 10.71875 -24.5 C 11.539062 -24.5 12.40625 -24.753906 13.3125 -25.265625 C 14.21875 -25.785156 14.988281 -26.597656 15.625 -27.703125 C 16.257812 -28.804688 16.578125 -30.226562 16.578125 -31.96875 L 17.28125 -31.96875 L 17.28125 -14.96875 L 16.578125 -14.96875 C 16.578125 -16.75 16.257812 -18.179688 15.625 -19.265625 C 14.988281 -20.347656 14.21875 -21.144531 13.3125 -21.65625 C 12.40625 -22.175781 11.539062 -22.4375 10.71875 -22.4375 L 9.703125 -22.4375 L 9.703125 -2.125 C 12.460938 -2.050781 14.5625 -2.390625 16 -3.140625 C 17.445312 -3.890625 18.492188 -5.113281 19.140625 -6.8125 C 19.796875 -8.507812 20.300781 -10.695312 20.65625 -13.375 L 21.359375 -13.375 L 21.359375 0 L 1.421875 0 C 1.972656 -0.945312 2.328125 -1.894531 2.484375 -2.84375 C 2.640625 -3.789062 2.71875 -5.25 2.71875 -7.21875 Z M 2.71875 -34.203125 "/></g></g></g><g fill="#000000" fill-opacity="1"><g transform="translate(223.132018, 60.747869)"><g><path d="M 15.921875 -7.515625 C 15.921875 -9.015625 15.566406 -10.347656 14.859375 -11.515625 C 14.148438 -12.679688 13.234375 -13.785156 12.109375 -14.828125 C 10.984375 -15.867188 9.796875 -16.921875 8.546875 -17.984375 C 7.304688 -19.054688 6.132812 -20.222656 5.03125 -21.484375 C 3.925781 -22.742188 3.019531 -24.179688 2.3125 -25.796875 C 1.601562 -27.421875 1.25 -29.296875 1.25 -31.421875 C 1.25 -33.359375 1.679688 -35.101562 2.546875 -36.65625 C 3.410156 -38.21875 4.582031 -39.460938 6.0625 -40.390625 C 7.539062 -41.316406 9.148438 -41.78125 10.890625 -41.78125 C 11.878906 -41.78125 12.773438 -41.75 13.578125 -41.6875 C 14.390625 -41.632812 15.171875 -41.609375 15.921875 -41.609375 C 16.785156 -41.609375 17.394531 -41.617188 17.75 -41.640625 C 18.101562 -41.660156 18.5625 -41.707031 19.125 -41.78125 L 19.125 -28.0625 L 18.40625 -28.0625 C 18.050781 -31.332031 17.476562 -33.796875 16.6875 -35.453125 C 15.894531 -37.109375 15.054688 -38.222656 14.171875 -38.796875 C 13.285156 -39.367188 12.488281 -39.65625 11.78125 -39.65625 C 10.28125 -39.65625 9.003906 -39.140625 7.953125 -38.109375 C 6.910156 -37.085938 6.390625 -35.648438 6.390625 -33.796875 C 6.390625 -32.296875 6.742188 -30.960938 7.453125 -29.796875 C 8.160156 -28.640625 9.078125 -27.546875 10.203125 -26.515625 C 11.328125 -25.492188 12.53125 -24.46875 13.8125 -23.4375 C 15.101562 -22.414062 16.3125 -21.289062 17.4375 -20.0625 C 18.5625 -18.84375 19.476562 -17.441406 20.1875 -15.859375 C 20.894531 -14.285156 21.25 -12.429688 21.25 -10.296875 C 21.25 -8.441406 20.863281 -6.695312 20.09375 -5.0625 C 19.320312 -3.425781 18.265625 -2.101562 16.921875 -1.09375 C 15.585938 -0.0820312 14.050781 0.421875 12.3125 0.421875 C 11.082031 0.421875 10.101562 0.347656 9.375 0.203125 C 8.644531 0.0664062 7.960938 -0.0546875 7.328125 -0.171875 C 6.703125 -0.296875 5.859375 -0.359375 4.796875 -0.359375 C 4.003906 -0.359375 3.3125 -0.238281 2.71875 0 C 2.125 0.238281 1.828125 0.378906 1.828125 0.421875 L 1.78125 -14.859375 L 2.484375 -14.859375 C 2.484375 -13.429688 2.679688 -11.957031 3.078125 -10.4375 C 3.472656 -8.925781 4.046875 -7.5 4.796875 -6.15625 C 5.546875 -4.8125 6.460938 -3.722656 7.546875 -2.890625 C 8.628906 -2.066406 9.84375 -1.65625 11.1875 -1.65625 C 12.570312 -1.65625 13.707031 -2.207031 14.59375 -3.3125 C 15.476562 -4.414062 15.921875 -5.816406 15.921875 -7.515625 Z M 15.921875 -7.515625 "/></g></g></g></svg>